<?xml version="1.0" ?><svg id="OBJECT" viewBox="0 0 512 512" xmlns="http://www.w3.org/2000/svg"><defs><style>.cls-1{fill:#bddbff;}.cls-2{fill:#3d9ae2;}.cls-3{fill:#fff;}</style></defs><title/><path class="cls-1" d="M256,7.5h0a100,100,0,0,1,100,100v240a0,0,0,0,1,0,0H156a0,0,0,0,1,0,0v-240A100,100,0,0,1,256,7.5Z"/><path class="cls-2" d="M356,355H156a7.5,7.5,0,0,1-7.5-7.5v-240a107.5,107.5,0,0,1,215,0v240A7.5,7.5,0,0,1,356,355ZM163.5,340h185V107.5a92.5,92.5,0,0,0-185,0Z"/><path class="cls-3" d="M402.45,336,297.15,304.5h-82.3L109.55,336A40,40,0,0,0,81,374.29V504.5H431V374.29A40,40,0,0,0,402.45,336Z"/><path class="cls-2" d="M431,512H81a7.5,7.5,0,0,1-7.5-7.5V374.29a47.8,47.8,0,0,1,33.9-45.51l105.3-31.47a7.82,7.82,0,0,1,2.15-.31h82.3a7.76,7.76,0,0,1,2.15.31l105.3,31.47h0a47.8,47.8,0,0,1,33.9,45.51V504.5A7.5,7.5,0,0,1,431,512ZM88.5,497h335V374.29a32.72,32.72,0,0,0-23.19-31.14L296.06,312H215.94L111.69,343.15A32.72,32.72,0,0,0,88.5,374.29Z"/><polygon class="cls-1" points="256 304.5 214.84 304.5 150.1 323.85 138.11 368.17 167.84 371.73 145.2 412.49 188.13 504.5 256 504.5 256 304.5"/><path class="cls-2" d="M256,512H188.13a7.5,7.5,0,0,1-6.8-4.33l-42.93-92a7.47,7.47,0,0,1,.24-6.81l17.22-31-18.65-2.23a7.51,7.51,0,0,1-6.34-9.41l12-44.32a7.52,7.52,0,0,1,5.1-5.23l64.74-19.35a7.82,7.82,0,0,1,2.15-.31H256a7.5,7.5,0,0,1,7.5,7.5v200A7.5,7.5,0,0,1,256,512Zm-63.1-15h55.6V312H215.94l-59.69,17.84-8.64,31.91,21.12,2.53a7.51,7.51,0,0,1,5.67,11.09l-20.79,37.42Z"/><polygon class="cls-1" points="256 304.5 297.15 304.5 361.9 323.85 373.89 368.17 344.16 371.73 366.8 412.49 323.87 504.5 256 504.5 256 304.5"/><path class="cls-2" d="M323.87,512H256a7.5,7.5,0,0,1-7.5-7.5v-200A7.5,7.5,0,0,1,256,297h41.15a7.76,7.76,0,0,1,2.15.31l64.75,19.35a7.52,7.52,0,0,1,5.09,5.23l12,44.32a7.51,7.51,0,0,1-6.34,9.41l-18.65,2.23,17.22,31a7.47,7.47,0,0,1,.24,6.81l-42.93,92A7.5,7.5,0,0,1,323.87,512ZM263.5,497h55.6l39.29-84.21L337.6,375.37a7.51,7.51,0,0,1,5.67-11.09l21.12-2.53-8.64-31.91L296.06,312H263.5Z"/><polygon class="cls-3" points="297.15 304.5 214.84 304.5 186.68 312.92 217.63 504.5 219.37 504.5 232.63 504.5 234.37 504.5 277.63 504.5 279.37 504.5 292.63 504.5 294.37 504.5 325.32 312.92 297.15 304.5"/><path class="cls-2" d="M294.37,512H217.63a7.51,7.51,0,0,1-7.41-6.3L179.27,314.11a7.5,7.5,0,0,1,5.26-8.38l28.17-8.42a7.82,7.82,0,0,1,2.15-.31h82.3a7.76,7.76,0,0,1,2.15.31l28.17,8.42a7.5,7.5,0,0,1,5.26,8.38l-31,191.59A7.51,7.51,0,0,1,294.37,512ZM224,497h64l28.88-178.78L296.06,312H215.94l-20.81,6.22Z"/><polygon class="cls-1" points="276 504.5 236 504.5 246 339 266 339 276 504.5"/><path class="cls-2" d="M276,512H236a7.51,7.51,0,0,1-7.49-7.95l10-165.5A7.5,7.5,0,0,1,246,331.5h20a7.5,7.5,0,0,1,7.49,7.05l10,165.5A7.51,7.51,0,0,1,276,512Zm-32-15H268l-9.09-150.5h-5.88Z"/><rect class="cls-3" height="120" width="80" x="216" y="223.63"/><path class="cls-2" d="M296,351.13H216a7.5,7.5,0,0,1-7.5-7.5v-120a7.5,7.5,0,0,1,7.5-7.5h80a7.5,7.5,0,0,1,7.5,7.5v120A7.5,7.5,0,0,1,296,351.13Zm-72.5-15h65v-105h-65Z"/><polygon class="cls-1" points="186.68 312.92 200.62 399.23 256 343.68 216.94 304.5 214.84 304.5 186.68 312.92"/><path class="cls-2" d="M200.62,406.73a7.49,7.49,0,0,1-7.4-6.3l-13.95-86.32a7.5,7.5,0,0,1,5.26-8.38l28.17-8.42a7.82,7.82,0,0,1,2.15-.31h2.09a7.51,7.51,0,0,1,5.31,2.2l39.06,39.19a7.5,7.5,0,0,1,0,10.59l-55.38,55.55A7.51,7.51,0,0,1,200.62,406.73Zm-5.49-88.51,10.55,65.31,39.73-39.85-31.1-31.19Z"/><polygon class="cls-1" points="325.66 312.92 311.72 399.23 256.34 343.68 295.4 304.5 297.49 304.5 325.66 312.92"/><path class="cls-2" d="M311.72,406.73a7.51,7.51,0,0,1-5.31-2.2L251,349a7.5,7.5,0,0,1,0-10.59l39.06-39.19a7.51,7.51,0,0,1,5.31-2.2h2.09a7.82,7.82,0,0,1,2.15.31l28.17,8.42a7.5,7.5,0,0,1,5.26,8.38l-13.95,86.32a7.51,7.51,0,0,1-5.1,5.94A7.61,7.61,0,0,1,311.72,406.73Zm-44.79-63.05,39.73,39.85,10.55-65.31L298,312.49Z"/><ellipse class="cls-3" cx="168.3" cy="166.98" rx="30.61" ry="36.74" transform="translate(-46.96 67.63) rotate(-20)"/><path class="cls-2" d="M172.05,210.55c-16.47,0-32.79-11.94-39.56-30.53-8.34-22.93.93-47.42,20.68-54.61,9.82-3.57,20.6-2.41,30.36,3.27a48.08,48.08,0,0,1,20.59,25.26h0a48.07,48.07,0,0,1,.47,32.59c-3.83,10.63-11.34,18.45-21.16,22A33.29,33.29,0,0,1,172.05,210.55Zm-7.4-72.15a18.34,18.34,0,0,0-6.35,1.11c-12,4.35-17.23,20.23-11.72,35.37s19.75,23.93,31.72,19.57c5.56-2,9.88-6.64,12.17-13a33,33,0,0,0-.45-22.37h0a33,33,0,0,0-14-17.42A22.56,22.56,0,0,0,164.65,138.4Z"/><ellipse class="cls-3" cx="342.87" cy="166.98" rx="36.74" ry="30.61" transform="translate(68.69 432.06) rotate(-70)"/><path class="cls-2" d="M339.26,210.58a33.58,33.58,0,0,1-11.52-2c-19.74-7.19-29-31.69-20.68-54.61h0C315.4,131,338.25,118.22,358,125.41c9.82,3.57,17.33,11.39,21.16,22a49.6,49.6,0,0,1-21.06,57.85A37.53,37.53,0,0,1,339.26,210.58Zm-18.11-51.51c-5.51,15.15-.25,31,11.72,35.38,5.56,2,11.84,1.26,17.69-2.14A34.64,34.64,0,0,0,365,152.51c-2.29-6.36-6.61-11-12.17-13-12-4.36-26.2,4.42-31.72,19.56Z"/><rect class="cls-3" height="220" rx="85" ry="85" width="170" x="171" y="53.42"/><path class="cls-2" d="M256,280.92a92.61,92.61,0,0,1-92.5-92.5v-50a92.5,92.5,0,0,1,185,0v50A92.61,92.61,0,0,1,256,280.92Zm0-220a77.59,77.59,0,0,0-77.5,77.5v50a77.5,77.5,0,1,0,155,0v-50A77.59,77.59,0,0,0,256,60.92Z"/><path class="cls-1" d="M256,7.5h0a100,100,0,0,0-100,100V125a20,20,0,0,0,20,20h50l32.5-40L286,145h50a20,20,0,0,0,20-20V107.5A100,100,0,0,0,256,7.5Z"/><path class="cls-2" d="M336,152.5H286a7.51,7.51,0,0,1-6.18-3.25L258,117.51l-26.18,32.22A7.5,7.5,0,0,1,226,152.5H176A27.54,27.54,0,0,1,148.5,125V107.5a107.5,107.5,0,0,1,215,0V125A27.54,27.54,0,0,1,336,152.5ZM290,137.5H336A12.52,12.52,0,0,0,348.5,125V107.5a92.5,92.5,0,0,0-185,0V125A12.52,12.52,0,0,0,176,137.5h46.43l30.25-37.23a7.51,7.51,0,0,1,12,.48Z"/></svg>